<svg width="28" height="28" viewBox="0 0 28 28" fill="none" xmlns="http://www.w3.org/2000/svg">
<path fill-rule="evenodd" clip-rule="evenodd" d="M8.71047 1.24399C10.079 1.18099 10.5153 1.16699 14.0013 1.16699C17.4873 1.16699 17.9236 1.18216 19.291 1.24399C20.6583 1.30583 21.5916 1.52399 22.4083 1.84016C23.2635 2.16333 24.0393 2.66849 24.681 3.32183C25.3343 3.96233 25.8383 4.73699 26.1603 5.59333C26.4776 6.40999 26.6946 7.34333 26.7576 8.70833C26.8206 10.0792 26.8346 10.5155 26.8346 14.0003C26.8346 17.4863 26.8195 17.9227 26.7576 19.2912C26.6958 20.6562 26.4776 21.5895 26.1603 22.4062C25.8383 23.2626 25.3335 24.0386 24.681 24.68C24.0393 25.3333 23.2635 25.8373 22.4083 26.1593C21.5916 26.4767 20.6583 26.6937 19.2933 26.7567C17.9236 26.8197 17.4873 26.8337 14.0013 26.8337C10.5153 26.8337 10.079 26.8185 8.71047 26.7567C7.34547 26.6948 6.41214 26.4767 5.59547 26.1593C4.73904 25.8373 3.96309 25.3325 3.32164 24.68C2.66875 24.0391 2.1635 23.2635 1.84114 22.4073C1.52497 21.5907 1.30797 20.6573 1.24497 19.2923C1.18197 17.9215 1.16797 17.4852 1.16797 14.0003C1.16797 10.5143 1.18314 10.078 1.24497 8.71066C1.3068 7.34333 1.52497 6.40999 1.84114 5.59333C2.16398 4.73709 2.66961 3.96152 3.3228 3.32066C3.96335 2.66791 4.73852 2.16268 5.5943 1.84016C6.41097 1.52399 7.3443 1.30699 8.7093 1.24399H8.71047ZM19.1871 3.55399C17.8338 3.49216 17.4278 3.47933 14.0013 3.47933C10.5748 3.47933 10.1688 3.49216 8.81547 3.55399C7.56363 3.61116 6.88464 3.81999 6.43197 3.99616C5.83347 4.22949 5.4053 4.50599 4.95614 4.95516C4.53035 5.36939 4.20268 5.87365 3.99714 6.43099C3.82097 6.88366 3.61214 7.56266 3.55497 8.81449C3.49314 10.1678 3.4803 10.5738 3.4803 14.0003C3.4803 17.4268 3.49314 17.8328 3.55497 19.1862C3.61214 20.438 3.82097 21.117 3.99714 21.5697C4.20247 22.1262 4.5303 22.6313 4.95614 23.0455C5.3703 23.4713 5.87547 23.7992 6.43197 24.0045C6.88464 24.1807 7.56363 24.3895 8.81547 24.4467C10.1688 24.5085 10.5736 24.5213 14.0013 24.5213C17.429 24.5213 17.8338 24.5085 19.1871 24.4467C20.439 24.3895 21.118 24.1807 21.5706 24.0045C22.1691 23.7712 22.5973 23.4947 23.0465 23.0455C23.4723 22.6313 23.8001 22.1262 24.0055 21.5697C24.1816 21.117 24.3905 20.438 24.4476 19.1862C24.5095 17.8328 24.5223 17.4268 24.5223 14.0003C24.5223 10.5738 24.5095 10.1678 24.4476 8.81449C24.3905 7.56266 24.1816 6.88366 24.0055 6.43099C23.7721 5.83249 23.4956 5.40433 23.0465 4.95516C22.6322 4.52941 22.128 4.20174 21.5706 3.99616C21.118 3.81999 20.439 3.61116 19.1871 3.55399ZM12.3621 17.9565C13.2776 18.3376 14.2969 18.389 15.2461 18.102C16.1952 17.815 17.0153 17.2074 17.5662 16.3829C18.1171 15.5585 18.3647 14.5683 18.2667 13.5816C18.1687 12.5949 17.7311 11.6728 17.0288 10.9728C16.5811 10.5254 16.0397 10.1828 15.4437 9.96966C14.8477 9.75655 14.2118 9.67825 13.5819 9.74038C12.952 9.80251 12.3436 10.0035 11.8007 10.329C11.2578 10.6544 10.7938 11.0962 10.4422 11.6225C10.0905 12.1488 9.85986 12.7465 9.7669 13.3726C9.67395 13.9987 9.72098 14.6377 9.9046 15.2434C10.0882 15.8492 10.4039 16.4067 10.8288 16.8758C11.2538 17.345 11.7774 17.714 12.3621 17.9565ZM9.33697 9.33599C9.9495 8.72346 10.6767 8.23758 11.477 7.90608C12.2773 7.57458 13.1351 7.40396 14.0013 7.40396C14.8675 7.40396 15.7253 7.57458 16.5256 7.90608C17.3259 8.23758 18.0531 8.72346 18.6656 9.33599C19.2782 9.94852 19.764 10.6757 20.0955 11.476C20.427 12.2763 20.5977 13.1341 20.5977 14.0003C20.5977 14.8666 20.427 15.7243 20.0955 16.5246C19.764 17.325 19.2782 18.0521 18.6656 18.6647C17.4286 19.9017 15.7508 20.5967 14.0013 20.5967C12.2518 20.5967 10.574 19.9017 9.33697 18.6647C8.09991 17.4276 7.40494 15.7498 7.40494 14.0003C7.40494 12.2509 8.09991 10.573 9.33697 9.33599ZM22.0606 8.38633C22.2124 8.24314 22.3339 8.07095 22.418 7.87996C22.502 7.68897 22.5469 7.48306 22.55 7.27441C22.553 7.06576 22.5141 6.85863 22.4357 6.66527C22.3573 6.47191 22.2408 6.29625 22.0933 6.1487C21.9457 6.00115 21.7701 5.88471 21.5767 5.80626C21.3833 5.72782 21.1762 5.68896 20.9675 5.69201C20.7589 5.69505 20.553 5.73992 20.362 5.82397C20.171 5.90802 19.9988 6.02954 19.8556 6.18132C19.5772 6.47653 19.4247 6.86863 19.4306 7.27441C19.4365 7.68019 19.6004 8.06768 19.8873 8.35464C20.1743 8.6416 20.5618 8.80543 20.9675 8.81134C21.3733 8.81726 21.7654 8.6648 22.0606 8.38633Z" fill="black"/>
</svg>
