<svg width="307" height="29" viewBox="0 0 307 29" fill="none" xmlns="http://www.w3.org/2000/svg">
<g clip-path="url(#clip0_78_3653)">
<path d="M2.50014 6.62473L13.2241 17.3499C13.5413 17.6674 13.9651 17.8558 14.4133 17.8788C14.8615 17.9018 15.3024 17.7577 15.6504 17.4744L15.7882 17.3499L26.5049 6.63198C26.5399 6.7649 26.5629 6.90023 26.575 7.03919L26.5846 7.25065V21.7507C26.5848 22.3603 26.3546 22.9476 25.94 23.3946C25.5254 23.8417 24.9572 24.1156 24.3492 24.1613L24.168 24.1673H4.83464C4.22494 24.1675 3.6377 23.9372 3.19064 23.5227C2.74358 23.1081 2.46974 22.5399 2.42401 21.9319L2.41797 21.7507V7.25065C2.41797 7.10565 2.43005 6.96548 2.45422 6.82773L2.50014 6.62473ZM24.168 4.83398C24.3142 4.83398 24.458 4.84607 24.5969 4.87144L24.8023 4.91857L14.5073 15.2136L4.20872 4.91615C4.34164 4.8799 4.47939 4.85573 4.61955 4.84365L4.83464 4.83398H24.168Z" fill="white"/>
</g>
<path d="M49.136 13.184H57.488V15.752H49.136V13.184ZM49.376 20.384H58.856V23H46.256V6.2H58.52V8.816H49.376V20.384ZM60.0832 23L65.7232 15.656L65.6752 17.264L60.2992 10.184H63.6352L67.4032 15.224H66.1312L69.9232 10.184H73.1632L67.7392 17.264L67.7632 15.656L73.3792 23H69.9952L66.0352 17.648L67.2832 17.816L63.3952 23H60.0832ZM83.2546 23V20.408L83.0866 19.856V15.32C83.0866 14.44 82.8226 13.76 82.2946 13.28C81.7666 12.784 80.9666 12.536 79.8946 12.536C79.1746 12.536 78.4626 12.648 77.7586 12.872C77.0706 13.096 76.4866 13.408 76.0066 13.808L74.8306 11.624C75.5186 11.096 76.3346 10.704 77.2786 10.448C78.2386 10.176 79.2306 10.04 80.2546 10.04C82.1106 10.04 83.5426 10.488 84.5506 11.384C85.5746 12.264 86.0866 13.632 86.0866 15.488V23H83.2546ZM79.2226 23.168C78.2626 23.168 77.4226 23.008 76.7026 22.688C75.9826 22.352 75.4226 21.896 75.0226 21.32C74.6386 20.728 74.4466 20.064 74.4466 19.328C74.4466 18.608 74.6146 17.96 74.9506 17.384C75.3026 16.808 75.8706 16.352 76.6546 16.016C77.4386 15.68 78.4786 15.512 79.7746 15.512H83.4946V17.504H79.9906C78.9666 17.504 78.2786 17.672 77.9266 18.008C77.5746 18.328 77.3986 18.728 77.3986 19.208C77.3986 19.752 77.6146 20.184 78.0466 20.504C78.4786 20.824 79.0786 20.984 79.8466 20.984C80.5826 20.984 81.2386 20.816 81.8146 20.48C82.4066 20.144 82.8306 19.648 83.0866 18.992L83.5906 20.792C83.3026 21.544 82.7826 22.128 82.0306 22.544C81.2946 22.96 80.3586 23.168 79.2226 23.168ZM106.113 10.04C107.137 10.04 108.041 10.24 108.825 10.64C109.625 11.04 110.249 11.656 110.697 12.488C111.145 13.304 111.369 14.36 111.369 15.656V23H108.369V16.04C108.369 14.904 108.121 14.056 107.625 13.496C107.129 12.936 106.417 12.656 105.489 12.656C104.833 12.656 104.249 12.8 103.737 13.088C103.241 13.376 102.849 13.8 102.561 14.36C102.289 14.92 102.153 15.632 102.153 16.496V23H99.1528V16.04C99.1528 14.904 98.9048 14.056 98.4088 13.496C97.9128 12.936 97.2008 12.656 96.2728 12.656C95.6168 12.656 95.0328 12.8 94.5208 13.088C94.0248 13.376 93.6328 13.8 93.3448 14.36C93.0728 14.92 92.9368 15.632 92.9368 16.496V23H89.9368V10.184H92.7928V13.592L92.2888 12.584C92.7208 11.752 93.3448 11.12 94.1608 10.688C94.9928 10.256 95.9368 10.04 96.9928 10.04C98.1928 10.04 99.2328 10.336 100.113 10.928C101.009 11.52 101.601 12.416 101.889 13.616L100.713 13.208C101.129 12.248 101.817 11.48 102.777 10.904C103.737 10.328 104.849 10.04 106.113 10.04ZM122.306 23.168C121.266 23.168 120.314 22.928 119.45 22.448C118.602 21.968 117.922 21.248 117.41 20.288C116.914 19.312 116.666 18.08 116.666 16.592C116.666 15.088 116.906 13.856 117.386 12.896C117.882 11.936 118.554 11.224 119.402 10.76C120.25 10.28 121.218 10.04 122.306 10.04C123.57 10.04 124.682 10.312 125.642 10.856C126.618 11.4 127.386 12.16 127.946 13.136C128.522 14.112 128.81 15.264 128.81 16.592C128.81 17.92 128.522 19.08 127.946 20.072C127.386 21.048 126.618 21.808 125.642 22.352C124.682 22.896 123.57 23.168 122.306 23.168ZM115.202 27.656V10.184H118.058V13.208L117.962 16.616L118.202 20.024V27.656H115.202ZM121.97 20.6C122.69 20.6 123.33 20.44 123.89 20.12C124.466 19.8 124.922 19.336 125.258 18.728C125.594 18.12 125.762 17.408 125.762 16.592C125.762 15.76 125.594 15.048 125.258 14.456C124.922 13.848 124.466 13.384 123.89 13.064C123.33 12.744 122.69 12.584 121.97 12.584C121.25 12.584 120.602 12.744 120.026 13.064C119.45 13.384 118.994 13.848 118.658 14.456C118.322 15.048 118.154 15.76 118.154 16.592C118.154 17.408 118.322 18.12 118.658 18.728C118.994 19.336 119.45 19.8 120.026 20.12C120.602 20.44 121.25 20.6 121.97 20.6ZM131.656 23V5.192H134.656V23H131.656ZM144.617 23.168C143.193 23.168 141.945 22.888 140.873 22.328C139.817 21.752 138.993 20.968 138.401 19.976C137.825 18.984 137.537 17.856 137.537 16.592C137.537 15.312 137.817 14.184 138.377 13.208C138.953 12.216 139.737 11.44 140.729 10.88C141.737 10.32 142.881 10.04 144.161 10.04C145.409 10.04 146.521 10.312 147.497 10.856C148.473 11.4 149.241 12.168 149.801 13.16C150.361 14.152 150.641 15.32 150.641 16.664C150.641 16.792 150.633 16.936 150.617 17.096C150.617 17.256 150.609 17.408 150.593 17.552H139.913V15.56H149.009L147.833 16.184C147.849 15.448 147.697 14.8 147.377 14.24C147.057 13.68 146.617 13.24 146.057 12.92C145.513 12.6 144.881 12.44 144.161 12.44C143.425 12.44 142.777 12.6 142.217 12.92C141.673 13.24 141.241 13.688 140.921 14.264C140.617 14.824 140.465 15.488 140.465 16.256V16.736C140.465 17.504 140.641 18.184 140.993 18.776C141.345 19.368 141.841 19.824 142.481 20.144C143.121 20.464 143.857 20.624 144.689 20.624C145.409 20.624 146.057 20.512 146.633 20.288C147.209 20.064 147.721 19.712 148.169 19.232L149.777 21.08C149.201 21.752 148.473 22.272 147.593 22.64C146.729 22.992 145.737 23.168 144.617 23.168ZM163.987 27.896C162.291 27.896 160.747 27.624 159.355 27.08C157.963 26.536 156.763 25.768 155.755 24.776C154.747 23.784 153.971 22.624 153.427 21.296C152.883 19.952 152.611 18.488 152.611 16.904C152.611 15.32 152.883 13.864 153.427 12.536C153.971 11.208 154.747 10.056 155.755 9.08C156.779 8.104 157.995 7.344 159.403 6.8C160.811 6.256 162.371 5.984 164.083 5.984C165.731 5.984 167.243 6.248 168.619 6.776C169.995 7.288 171.179 8.016 172.171 8.96C173.179 9.888 173.955 10.992 174.499 12.272C175.059 13.552 175.339 14.96 175.339 16.496C175.339 17.872 175.155 19.064 174.787 20.072C174.419 21.064 173.891 21.824 173.203 22.352C172.531 22.88 171.707 23.144 170.731 23.144C169.739 23.144 168.947 22.848 168.355 22.256C167.779 21.664 167.491 20.808 167.491 19.688V18.32L167.587 16.952L167.371 13.832V11.096H170.035V19.256C170.035 19.864 170.155 20.296 170.395 20.552C170.651 20.792 170.947 20.912 171.283 20.912C171.715 20.912 172.083 20.744 172.387 20.408C172.691 20.072 172.915 19.576 173.059 18.92C173.219 18.264 173.299 17.472 173.299 16.544C173.299 15.264 173.075 14.096 172.627 13.04C172.195 11.984 171.563 11.08 170.731 10.328C169.915 9.56 168.939 8.976 167.803 8.576C166.683 8.16 165.443 7.952 164.083 7.952C162.691 7.952 161.427 8.176 160.291 8.624C159.155 9.056 158.179 9.672 157.363 10.472C156.547 11.272 155.915 12.224 155.467 13.328C155.035 14.416 154.819 15.608 154.819 16.904C154.819 18.232 155.035 19.448 155.467 20.552C155.899 21.656 156.515 22.6 157.315 23.384C158.131 24.184 159.099 24.8 160.219 25.232C161.339 25.68 162.595 25.904 163.987 25.904C164.723 25.904 165.499 25.816 166.315 25.64C167.131 25.48 167.907 25.216 168.643 24.848L169.291 26.768C168.555 27.136 167.707 27.416 166.747 27.608C165.787 27.8 164.867 27.896 163.987 27.896ZM163.363 23.144C162.259 23.144 161.275 22.888 160.411 22.376C159.547 21.848 158.859 21.128 158.347 20.216C157.851 19.288 157.603 18.224 157.603 17.024C157.603 15.84 157.851 14.792 158.347 13.88C158.843 12.952 159.523 12.232 160.387 11.72C161.267 11.208 162.259 10.952 163.363 10.952C164.435 10.952 165.371 11.192 166.171 11.672C166.971 12.136 167.595 12.816 168.043 13.712C168.491 14.608 168.715 15.712 168.715 17.024C168.715 18.336 168.499 19.448 168.067 20.36C167.635 21.272 167.019 21.968 166.219 22.448C165.419 22.912 164.467 23.144 163.363 23.144ZM163.867 20.816C164.555 20.816 165.163 20.672 165.691 20.384C166.219 20.08 166.635 19.64 166.939 19.064C167.259 18.488 167.419 17.808 167.419 17.024C167.419 16.224 167.259 15.552 166.939 15.008C166.635 14.448 166.219 14.024 165.691 13.736C165.163 13.432 164.555 13.28 163.867 13.28C163.163 13.28 162.539 13.432 161.995 13.736C161.467 14.04 161.051 14.472 160.747 15.032C160.459 15.592 160.315 16.256 160.315 17.024C160.315 17.808 160.459 18.48 160.747 19.04C161.051 19.6 161.467 20.04 161.995 20.36C162.539 20.664 163.163 20.816 163.867 20.816ZM184.151 27.824C182.967 27.824 181.807 27.664 180.671 27.344C179.551 27.04 178.631 26.592 177.911 26L179.255 23.744C179.815 24.208 180.519 24.576 181.367 24.848C182.231 25.136 183.103 25.28 183.983 25.28C185.391 25.28 186.423 24.952 187.079 24.296C187.735 23.656 188.063 22.688 188.063 21.392V19.112L188.303 16.208L188.207 13.304V10.184H191.063V21.056C191.063 23.376 190.471 25.08 189.287 26.168C188.103 27.272 186.391 27.824 184.151 27.824ZM183.767 22.424C182.551 22.424 181.447 22.168 180.455 21.656C179.479 21.128 178.703 20.4 178.127 19.472C177.567 18.544 177.287 17.456 177.287 16.208C177.287 14.976 177.567 13.896 178.127 12.968C178.703 12.04 179.479 11.32 180.455 10.808C181.447 10.296 182.551 10.04 183.767 10.04C184.855 10.04 185.831 10.256 186.695 10.688C187.559 11.12 188.247 11.792 188.759 12.704C189.287 13.616 189.551 14.784 189.551 16.208C189.551 17.632 189.287 18.808 188.759 19.736C188.247 20.648 187.559 21.328 186.695 21.776C185.831 22.208 184.855 22.424 183.767 22.424ZM184.223 19.88C184.975 19.88 185.647 19.728 186.239 19.424C186.831 19.104 187.287 18.672 187.607 18.128C187.943 17.568 188.111 16.928 188.111 16.208C188.111 15.488 187.943 14.856 187.607 14.312C187.287 13.752 186.831 13.328 186.239 13.04C185.647 12.736 184.975 12.584 184.223 12.584C183.471 12.584 182.791 12.736 182.183 13.04C181.591 13.328 181.127 13.752 180.791 14.312C180.471 14.856 180.311 15.488 180.311 16.208C180.311 16.928 180.471 17.568 180.791 18.128C181.127 18.672 181.591 19.104 182.183 19.424C182.791 19.728 183.471 19.88 184.223 19.88ZM211.183 10.04C212.207 10.04 213.111 10.24 213.895 10.64C214.695 11.04 215.319 11.656 215.767 12.488C216.215 13.304 216.439 14.36 216.439 15.656V23H213.439V16.04C213.439 14.904 213.191 14.056 212.695 13.496C212.199 12.936 211.487 12.656 210.559 12.656C209.903 12.656 209.319 12.8 208.807 13.088C208.311 13.376 207.919 13.8 207.631 14.36C207.359 14.92 207.223 15.632 207.223 16.496V23H204.223V16.04C204.223 14.904 203.975 14.056 203.479 13.496C202.983 12.936 202.271 12.656 201.343 12.656C200.687 12.656 200.103 12.8 199.591 13.088C199.095 13.376 198.703 13.8 198.415 14.36C198.143 14.92 198.007 15.632 198.007 16.496V23H195.007V10.184H197.863V13.592L197.359 12.584C197.791 11.752 198.415 11.12 199.231 10.688C200.063 10.256 201.007 10.04 202.063 10.04C203.263 10.04 204.303 10.336 205.183 10.928C206.079 11.52 206.671 12.416 206.959 13.616L205.783 13.208C206.199 12.248 206.887 11.48 207.847 10.904C208.807 10.328 209.919 10.04 211.183 10.04ZM228.169 23V20.408L228.001 19.856V15.32C228.001 14.44 227.737 13.76 227.209 13.28C226.681 12.784 225.881 12.536 224.809 12.536C224.089 12.536 223.377 12.648 222.673 12.872C221.985 13.096 221.401 13.408 220.921 13.808L219.745 11.624C220.433 11.096 221.249 10.704 222.193 10.448C223.153 10.176 224.145 10.04 225.169 10.04C227.025 10.04 228.457 10.488 229.465 11.384C230.489 12.264 231.001 13.632 231.001 15.488V23H228.169ZM224.137 23.168C223.177 23.168 222.337 23.008 221.617 22.688C220.897 22.352 220.337 21.896 219.937 21.32C219.553 20.728 219.361 20.064 219.361 19.328C219.361 18.608 219.529 17.96 219.865 17.384C220.217 16.808 220.785 16.352 221.569 16.016C222.353 15.68 223.393 15.512 224.689 15.512H228.409V17.504H224.905C223.881 17.504 223.193 17.672 222.841 18.008C222.489 18.328 222.313 18.728 222.313 19.208C222.313 19.752 222.529 20.184 222.961 20.504C223.393 20.824 223.993 20.984 224.761 20.984C225.497 20.984 226.153 20.816 226.729 20.48C227.321 20.144 227.745 19.648 228.001 18.992L228.505 20.792C228.217 21.544 227.697 22.128 226.945 22.544C226.209 22.96 225.273 23.168 224.137 23.168ZM234.851 23V10.184H237.851V23H234.851ZM236.363 8.072C235.803 8.072 235.339 7.896 234.971 7.544C234.619 7.192 234.443 6.768 234.443 6.272C234.443 5.76 234.619 5.336 234.971 5C235.339 4.648 235.803 4.472 236.363 4.472C236.923 4.472 237.379 4.64 237.731 4.976C238.099 5.296 238.283 5.704 238.283 6.2C238.283 6.728 238.107 7.176 237.755 7.544C237.403 7.896 236.939 8.072 236.363 8.072ZM241.788 23V5.192H244.788V23H241.788ZM249.686 23.168C249.142 23.168 248.678 22.984 248.294 22.616C247.91 22.232 247.718 21.752 247.718 21.176C247.718 20.568 247.91 20.088 248.294 19.736C248.678 19.368 249.142 19.184 249.686 19.184C250.23 19.184 250.694 19.368 251.078 19.736C251.462 20.088 251.654 20.568 251.654 21.176C251.654 21.752 251.462 22.232 251.078 22.616C250.694 22.984 250.23 23.168 249.686 23.168ZM260.254 23.168C258.91 23.168 257.71 22.888 256.654 22.328C255.614 21.752 254.798 20.968 254.206 19.976C253.614 18.984 253.318 17.856 253.318 16.592C253.318 15.312 253.614 14.184 254.206 13.208C254.798 12.216 255.614 11.44 256.654 10.88C257.71 10.32 258.91 10.04 260.254 10.04C261.502 10.04 262.598 10.296 263.542 10.808C264.502 11.304 265.23 12.04 265.726 13.016L263.422 14.36C263.038 13.752 262.566 13.304 262.006 13.016C261.462 12.728 260.87 12.584 260.23 12.584C259.494 12.584 258.83 12.744 258.238 13.064C257.646 13.384 257.182 13.848 256.846 14.456C256.51 15.048 256.342 15.76 256.342 16.592C256.342 17.424 256.51 18.144 256.846 18.752C257.182 19.344 257.646 19.8 258.238 20.12C258.83 20.44 259.494 20.6 260.23 20.6C260.87 20.6 261.462 20.456 262.006 20.168C262.566 19.88 263.038 19.432 263.422 18.824L265.726 20.168C265.23 21.128 264.502 21.872 263.542 22.4C262.598 22.912 261.502 23.168 260.254 23.168ZM273.892 23.168C272.58 23.168 271.412 22.888 270.388 22.328C269.364 21.752 268.556 20.968 267.964 19.976C267.372 18.984 267.076 17.856 267.076 16.592C267.076 15.312 267.372 14.184 267.964 13.208C268.556 12.216 269.364 11.44 270.388 10.88C271.412 10.32 272.58 10.04 273.892 10.04C275.22 10.04 276.396 10.32 277.42 10.88C278.46 11.44 279.268 12.208 279.844 13.184C280.436 14.16 280.732 15.296 280.732 16.592C280.732 17.856 280.436 18.984 279.844 19.976C279.268 20.968 278.46 21.752 277.42 22.328C276.396 22.888 275.22 23.168 273.892 23.168ZM273.892 20.6C274.628 20.6 275.284 20.44 275.86 20.12C276.436 19.8 276.884 19.336 277.204 18.728C277.54 18.12 277.708 17.408 277.708 16.592C277.708 15.76 277.54 15.048 277.204 14.456C276.884 13.848 276.436 13.384 275.86 13.064C275.284 12.744 274.636 12.584 273.916 12.584C273.18 12.584 272.524 12.744 271.948 13.064C271.388 13.384 270.94 13.848 270.604 14.456C270.268 15.048 270.1 15.76 270.1 16.592C270.1 17.408 270.268 18.12 270.604 18.728C270.94 19.336 271.388 19.8 271.948 20.12C272.524 20.44 273.172 20.6 273.892 20.6ZM299.777 10.04C300.801 10.04 301.705 10.24 302.489 10.64C303.289 11.04 303.913 11.656 304.361 12.488C304.809 13.304 305.033 14.36 305.033 15.656V23H302.033V16.04C302.033 14.904 301.785 14.056 301.289 13.496C300.793 12.936 300.081 12.656 299.153 12.656C298.497 12.656 297.913 12.8 297.401 13.088C296.905 13.376 296.513 13.8 296.225 14.36C295.953 14.92 295.817 15.632 295.817 16.496V23H292.817V16.04C292.817 14.904 292.569 14.056 292.073 13.496C291.577 12.936 290.865 12.656 289.937 12.656C289.281 12.656 288.697 12.8 288.185 13.088C287.689 13.376 287.297 13.8 287.009 14.36C286.737 14.92 286.601 15.632 286.601 16.496V23H283.601V10.184H286.457V13.592L285.953 12.584C286.385 11.752 287.009 11.12 287.825 10.688C288.657 10.256 289.601 10.04 290.657 10.04C291.857 10.04 292.897 10.336 293.777 10.928C294.673 11.52 295.265 12.416 295.553 13.616L294.377 13.208C294.793 12.248 295.481 11.48 296.441 10.904C297.401 10.328 298.513 10.04 299.777 10.04Z" fill="white"/>
<defs>
<clipPath id="clip0_78_3653">
<rect width="29" height="29" fill="white"/>
</clipPath>
</defs>
</svg>
