<svg width="244" height="29" viewBox="0 0 244 29" fill="none" xmlns="http://www.w3.org/2000/svg">
<path d="M14.4583 13.4792C13.6572 13.4792 12.8888 13.1609 12.3223 12.5944C11.7558 12.0279 11.4375 11.2595 11.4375 10.4583C11.4375 9.65716 11.7558 8.8888 12.3223 8.32228C12.8888 7.75577 13.6572 7.4375 14.4583 7.4375C15.2595 7.4375 16.0279 7.75577 16.5944 8.32228C17.1609 8.8888 17.4792 9.65716 17.4792 10.4583C17.4792 10.855 17.401 11.2479 17.2492 11.6144C17.0974 11.9809 16.8749 12.3139 16.5944 12.5944C16.3139 12.8749 15.9809 13.0974 15.6144 13.2492C15.2479 13.401 14.855 13.4792 14.4583 13.4792M14.4583 2C12.215 2 10.0636 2.89114 8.47739 4.47739C6.89114 6.06363 6 8.21504 6 10.4583C6 16.8021 14.4583 26.1667 14.4583 26.1667C14.4583 26.1667 22.9167 16.8021 22.9167 10.4583C22.9167 8.21504 22.0255 6.06363 20.4393 4.47739C18.853 2.89114 16.7016 2 14.4583 2V2Z" fill="white"/>
<path d="M57.464 23L51.776 14.816L54.296 13.256L60.992 23H57.464ZM46.352 23V6.2H49.424V23H46.352ZM48.488 15.92V13.232H54.152V15.92H48.488ZM54.584 14.96L51.728 14.576L57.464 6.2H60.776L54.584 14.96ZM70.7139 23V20.408L70.5459 19.856V15.32C70.5459 14.44 70.2819 13.76 69.7539 13.28C69.2259 12.784 68.4259 12.536 67.3539 12.536C66.6339 12.536 65.9219 12.648 65.2179 12.872C64.5299 13.096 63.9459 13.408 63.4659 13.808L62.2899 11.624C62.9779 11.096 63.7939 10.704 64.7379 10.448C65.6979 10.176 66.6899 10.04 67.7139 10.04C69.5699 10.04 71.0019 10.488 72.0099 11.384C73.0339 12.264 73.5459 13.632 73.5459 15.488V23H70.7139ZM66.6819 23.168C65.7219 23.168 64.8819 23.008 64.1619 22.688C63.4419 22.352 62.8819 21.896 62.4819 21.32C62.0979 20.728 61.9059 20.064 61.9059 19.328C61.9059 18.608 62.0739 17.96 62.4099 17.384C62.7619 16.808 63.3299 16.352 64.1139 16.016C64.8979 15.68 65.9379 15.512 67.2339 15.512H70.9539V17.504H67.4499C66.4259 17.504 65.7379 17.672 65.3859 18.008C65.0339 18.328 64.8579 18.728 64.8579 19.208C64.8579 19.752 65.0739 20.184 65.5059 20.504C65.9379 20.824 66.5379 20.984 67.3059 20.984C68.0419 20.984 68.6979 20.816 69.2739 20.48C69.8659 20.144 70.2899 19.648 70.5459 18.992L71.0499 20.792C70.7619 21.544 70.2419 22.128 69.4899 22.544C68.7539 22.96 67.8179 23.168 66.6819 23.168ZM77.2582 23V10.184H80.2582V18.632L87.3382 10.184H90.0742V23H87.0742V14.552L80.0182 23H77.2582ZM83.4742 8.672C82.1942 8.672 81.2102 8.376 80.5222 7.784C79.8342 7.176 79.4822 6.296 79.4662 5.144H81.4582C81.4742 5.72 81.6502 6.176 81.9862 6.512C82.3382 6.848 82.8262 7.016 83.4502 7.016C84.0582 7.016 84.5382 6.848 84.8902 6.512C85.2582 6.176 85.4502 5.72 85.4662 5.144H87.5062C87.4902 6.296 87.1302 7.176 86.4262 7.784C85.7382 8.376 84.7542 8.672 83.4742 8.672ZM107.046 23V10.184H110.046V23H107.046ZM100.35 14.408C101.998 14.408 103.246 14.776 104.094 15.512C104.958 16.248 105.39 17.288 105.39 18.632C105.39 20.024 104.91 21.112 103.95 21.896C103.006 22.664 101.662 23.04 99.9178 23.024L94.1098 23V10.184H97.1098V14.384L100.35 14.408ZM99.6538 20.816C100.534 20.832 101.206 20.648 101.67 20.264C102.134 19.88 102.366 19.32 102.366 18.584C102.366 17.848 102.134 17.32 101.67 17C101.222 16.664 100.55 16.488 99.6538 16.472L97.1098 16.448V20.792L99.6538 20.816ZM123.271 23L118.639 16.856L121.087 15.344L126.799 23H123.271ZM114.079 23V10.184H117.079V23H114.079ZM116.191 17.864V15.368H120.535V17.864H116.191ZM121.375 16.952L118.567 16.616L123.271 10.184H126.487L121.375 16.952ZM134.205 23.168C132.893 23.168 131.725 22.888 130.701 22.328C129.677 21.752 128.869 20.968 128.277 19.976C127.685 18.984 127.389 17.856 127.389 16.592C127.389 15.312 127.685 14.184 128.277 13.208C128.869 12.216 129.677 11.44 130.701 10.88C131.725 10.32 132.893 10.04 134.205 10.04C135.533 10.04 136.709 10.32 137.733 10.88C138.773 11.44 139.581 12.208 140.157 13.184C140.749 14.16 141.045 15.296 141.045 16.592C141.045 17.856 140.749 18.984 140.157 19.976C139.581 20.968 138.773 21.752 137.733 22.328C136.709 22.888 135.533 23.168 134.205 23.168ZM134.205 20.6C134.941 20.6 135.597 20.44 136.173 20.12C136.749 19.8 137.197 19.336 137.517 18.728C137.853 18.12 138.021 17.408 138.021 16.592C138.021 15.76 137.853 15.048 137.517 14.456C137.197 13.848 136.749 13.384 136.173 13.064C135.597 12.744 134.949 12.584 134.229 12.584C133.493 12.584 132.837 12.744 132.261 13.064C131.701 13.384 131.253 13.848 130.917 14.456C130.581 15.048 130.413 15.76 130.413 16.592C130.413 17.408 130.581 18.12 130.917 18.728C131.253 19.336 131.701 19.8 132.261 20.12C132.837 20.44 133.485 20.6 134.205 20.6ZM144.008 23V10.184H150.272C151.824 10.184 153.04 10.472 153.92 11.048C154.816 11.624 155.264 12.44 155.264 13.496C155.264 14.536 154.848 15.352 154.016 15.944C153.184 16.52 152.08 16.808 150.704 16.808L151.064 16.064C152.616 16.064 153.768 16.352 154.52 16.928C155.288 17.488 155.672 18.312 155.672 19.4C155.672 20.536 155.248 21.424 154.4 22.064C153.552 22.688 152.264 23 150.536 23H144.008ZM146.864 20.816H150.296C151.112 20.816 151.728 20.688 152.144 20.432C152.56 20.16 152.768 19.752 152.768 19.208C152.768 18.632 152.576 18.208 152.192 17.936C151.808 17.664 151.208 17.528 150.392 17.528H146.864V20.816ZM146.864 15.536H150.008C150.776 15.536 151.352 15.4 151.736 15.128C152.136 14.84 152.336 14.44 152.336 13.928C152.336 13.4 152.136 13.008 151.736 12.752C151.352 12.496 150.776 12.368 150.008 12.368H146.864V15.536ZM166.644 23V20.408L166.476 19.856V15.32C166.476 14.44 166.212 13.76 165.684 13.28C165.156 12.784 164.356 12.536 163.284 12.536C162.564 12.536 161.852 12.648 161.148 12.872C160.46 13.096 159.876 13.408 159.396 13.808L158.22 11.624C158.908 11.096 159.724 10.704 160.668 10.448C161.628 10.176 162.62 10.04 163.644 10.04C165.5 10.04 166.932 10.488 167.94 11.384C168.964 12.264 169.476 13.632 169.476 15.488V23H166.644ZM162.612 23.168C161.652 23.168 160.812 23.008 160.092 22.688C159.372 22.352 158.812 21.896 158.412 21.32C158.028 20.728 157.836 20.064 157.836 19.328C157.836 18.608 158.004 17.96 158.34 17.384C158.692 16.808 159.26 16.352 160.044 16.016C160.828 15.68 161.868 15.512 163.164 15.512H166.884V17.504H163.38C162.356 17.504 161.668 17.672 161.316 18.008C160.964 18.328 160.788 18.728 160.788 19.208C160.788 19.752 161.004 20.184 161.436 20.504C161.868 20.824 162.468 20.984 163.236 20.984C163.972 20.984 164.628 20.816 165.204 20.48C165.796 20.144 166.22 19.648 166.476 18.992L166.98 20.792C166.692 21.544 166.172 22.128 165.42 22.544C164.684 22.96 163.748 23.168 162.612 23.168ZM172.348 26.624L173.74 21.32L174.148 23.096C173.588 23.096 173.116 22.928 172.732 22.592C172.364 22.24 172.18 21.768 172.18 21.176C172.18 20.568 172.364 20.088 172.732 19.736C173.116 19.368 173.58 19.184 174.124 19.184C174.684 19.184 175.148 19.368 175.516 19.736C175.884 20.104 176.068 20.584 176.068 21.176C176.068 21.336 176.052 21.512 176.02 21.704C175.988 21.88 175.932 22.088 175.852 22.328C175.788 22.568 175.676 22.872 175.516 23.24L174.292 26.624H172.348ZM190.288 23.24C189.104 23.24 187.944 23.072 186.808 22.736C185.688 22.384 184.744 21.904 183.976 21.296L185.296 18.872C185.904 19.368 186.64 19.768 187.504 20.072C188.384 20.376 189.296 20.528 190.24 20.528C191.344 20.528 192.208 20.296 192.832 19.832C193.472 19.368 193.792 18.744 193.792 17.96C193.792 17.432 193.656 16.968 193.384 16.568C193.128 16.168 192.664 15.864 191.992 15.656C191.336 15.448 190.432 15.344 189.28 15.344H185.224L186.088 6.2H195.952V8.816H187.24L188.872 7.328L188.224 14.168L186.592 12.704H189.976C191.64 12.704 192.976 12.928 193.984 13.376C195.008 13.808 195.752 14.416 196.216 15.2C196.696 15.968 196.936 16.848 196.936 17.84C196.936 18.816 196.696 19.712 196.216 20.528C195.736 21.344 195 22 194.008 22.496C193.032 22.992 191.792 23.24 190.288 23.24ZM201.424 23V7.4L202.792 8.816H197.872V6.2H204.544V23H201.424ZM208.14 17.576V15.08H214.74V17.576H208.14ZM222.679 23.24C221.495 23.24 220.335 23.072 219.199 22.736C218.079 22.384 217.135 21.904 216.367 21.296L217.687 18.872C218.295 19.368 219.031 19.768 219.895 20.072C220.775 20.376 221.687 20.528 222.631 20.528C223.735 20.528 224.599 20.296 225.223 19.832C225.863 19.368 226.183 18.744 226.183 17.96C226.183 17.432 226.047 16.968 225.775 16.568C225.519 16.168 225.055 15.864 224.383 15.656C223.727 15.448 222.823 15.344 221.671 15.344H217.615L218.479 6.2H228.343V8.816H219.631L221.263 7.328L220.615 14.168L218.983 12.704H222.367C224.031 12.704 225.367 12.928 226.375 13.376C227.399 13.808 228.143 14.416 228.607 15.2C229.087 15.968 229.327 16.848 229.327 17.84C229.327 18.816 229.087 19.712 228.607 20.528C228.127 21.344 227.391 22 226.399 22.496C225.423 22.992 224.183 23.24 222.679 23.24ZM236.289 23.24C235.105 23.24 233.945 23.072 232.809 22.736C231.689 22.384 230.745 21.904 229.977 21.296L231.321 18.872C231.929 19.368 232.665 19.768 233.529 20.072C234.393 20.376 235.297 20.528 236.241 20.528C237.361 20.528 238.233 20.304 238.857 19.856C239.481 19.392 239.793 18.768 239.793 17.984C239.793 17.216 239.505 16.608 238.929 16.16C238.353 15.712 237.425 15.488 236.145 15.488H234.609V13.352L239.409 7.64L239.817 8.816H230.793V6.2H242.241V8.288L237.441 14L235.809 13.04H236.745C238.809 13.04 240.353 13.504 241.377 14.432C242.417 15.344 242.937 16.52 242.937 17.96C242.937 18.904 242.697 19.776 242.217 20.576C241.737 21.376 241.001 22.024 240.009 22.52C239.033 23 237.793 23.24 236.289 23.24Z" fill="white"/>
</svg>
