<svg width="247" height="29" viewBox="0 0 247 29" fill="none" xmlns="http://www.w3.org/2000/svg">
<path d="M7.99917 13.0379C9.73917 16.4575 12.5425 19.2487 15.9621 21.0008L18.6204 18.3425C18.9467 18.0163 19.43 17.9075 19.8529 18.0525C21.2063 18.4996 22.6683 18.7413 24.1667 18.7413C24.8313 18.7413 25.375 19.285 25.375 19.9496V24.1667C25.375 24.8313 24.8313 25.375 24.1667 25.375C12.8204 25.375 3.625 16.1796 3.625 4.83333C3.625 4.16875 4.16875 3.625 4.83333 3.625H9.0625C9.72708 3.625 10.2708 4.16875 10.2708 4.83333C10.2708 6.34375 10.5125 7.79375 10.9596 9.14708C11.0925 9.57 10.9958 10.0413 10.6575 10.3796L7.99917 13.0379Z" fill="white"/>
<path d="M49.808 20V9.2H52.376V20H49.808ZM45.56 15.8V13.4H56.624V15.8H45.56ZM64.8763 5.96C66.4123 5.96 67.7163 6.288 68.7883 6.944C69.8763 7.584 70.7083 8.52 71.2843 9.752C71.8603 10.984 72.1483 12.504 72.1483 14.312C72.1483 16.232 71.7963 17.856 71.0923 19.184C70.4043 20.512 69.4443 21.52 68.2123 22.208C66.9803 22.896 65.5483 23.24 63.9163 23.24C63.0683 23.24 62.2603 23.152 61.4923 22.976C60.7243 22.8 60.0603 22.528 59.5003 22.16L60.6523 19.808C61.1163 20.112 61.6203 20.328 62.1643 20.456C62.7083 20.568 63.2683 20.624 63.8443 20.624C65.4283 20.624 66.6843 20.136 67.6123 19.16C68.5403 18.184 69.0043 16.744 69.0043 14.84C69.0043 14.536 68.9963 14.184 68.9803 13.784C68.9643 13.368 68.9083 12.952 68.8123 12.536L69.7723 13.592C69.5003 14.248 69.1083 14.8 68.5963 15.248C68.0843 15.68 67.4843 16.008 66.7963 16.232C66.1083 16.456 65.3483 16.568 64.5163 16.568C63.4283 16.568 62.4443 16.36 61.5643 15.944C60.7003 15.512 60.0123 14.912 59.5003 14.144C58.9883 13.36 58.7323 12.448 58.7323 11.408C58.7323 10.288 59.0043 9.328 59.5483 8.528C60.0923 7.712 60.8283 7.08 61.7563 6.632C62.7003 6.184 63.7403 5.96 64.8763 5.96ZM65.0443 8.408C64.4043 8.408 63.8363 8.528 63.3403 8.768C62.8443 8.992 62.4523 9.32 62.1643 9.752C61.8923 10.168 61.7563 10.672 61.7563 11.264C61.7563 12.144 62.0603 12.84 62.6683 13.352C63.2763 13.864 64.0923 14.12 65.1163 14.12C65.7883 14.12 66.3803 14 66.8923 13.76C67.4043 13.504 67.8043 13.16 68.0923 12.728C68.3803 12.28 68.5243 11.784 68.5243 11.24C68.5243 10.712 68.3883 10.24 68.1163 9.824C67.8443 9.392 67.4523 9.048 66.9403 8.792C66.4283 8.536 65.7963 8.408 65.0443 8.408ZM79.9231 5.96C81.4591 5.96 82.7631 6.288 83.8351 6.944C84.9231 7.584 85.7551 8.52 86.3311 9.752C86.9071 10.984 87.1951 12.504 87.1951 14.312C87.1951 16.232 86.8431 17.856 86.1391 19.184C85.4511 20.512 84.4911 21.52 83.2591 22.208C82.0271 22.896 80.5951 23.24 78.9631 23.24C78.1151 23.24 77.3071 23.152 76.5391 22.976C75.7711 22.8 75.1071 22.528 74.5471 22.16L75.6991 19.808C76.1631 20.112 76.6671 20.328 77.2111 20.456C77.7551 20.568 78.3151 20.624 78.8911 20.624C80.4751 20.624 81.7311 20.136 82.6591 19.16C83.5871 18.184 84.0511 16.744 84.0511 14.84C84.0511 14.536 84.0431 14.184 84.0271 13.784C84.0111 13.368 83.9551 12.952 83.8591 12.536L84.8191 13.592C84.5471 14.248 84.1551 14.8 83.6431 15.248C83.1311 15.68 82.5311 16.008 81.8431 16.232C81.1551 16.456 80.3951 16.568 79.5631 16.568C78.4751 16.568 77.4911 16.36 76.6111 15.944C75.7471 15.512 75.0591 14.912 74.5471 14.144C74.0351 13.36 73.7791 12.448 73.7791 11.408C73.7791 10.288 74.0511 9.328 74.5951 8.528C75.1391 7.712 75.8751 7.08 76.8031 6.632C77.7471 6.184 78.7871 5.96 79.9231 5.96ZM80.0911 8.408C79.4511 8.408 78.8831 8.528 78.3871 8.768C77.8911 8.992 77.4991 9.32 77.2111 9.752C76.9391 10.168 76.8031 10.672 76.8031 11.264C76.8031 12.144 77.1071 12.84 77.7151 13.352C78.3231 13.864 79.1391 14.12 80.1631 14.12C80.8351 14.12 81.4271 14 81.9391 13.76C82.4511 13.504 82.8511 13.16 83.1391 12.728C83.4271 12.28 83.5711 11.784 83.5711 11.24C83.5711 10.712 83.4351 10.24 83.1631 9.824C82.8911 9.392 82.4991 9.048 81.9871 8.792C81.4751 8.536 80.8431 8.408 80.0911 8.408ZM96.578 23.24C95.058 23.24 93.754 22.92 92.666 22.28C91.578 21.624 90.746 20.68 90.17 19.448C89.594 18.216 89.306 16.696 89.306 14.888C89.306 12.968 89.65 11.344 90.338 10.016C91.042 8.688 92.01 7.68 93.242 6.992C94.49 6.304 95.922 5.96 97.538 5.96C98.386 5.96 99.194 6.048 99.962 6.224C100.746 6.4 101.41 6.672 101.954 7.04L100.802 9.392C100.338 9.088 99.834 8.88 99.29 8.768C98.762 8.64 98.202 8.576 97.61 8.576C96.026 8.576 94.77 9.064 93.842 10.04C92.914 11.016 92.45 12.456 92.45 14.36C92.45 14.664 92.458 15.024 92.474 15.44C92.49 15.84 92.546 16.248 92.642 16.664L91.682 15.608C91.97 14.952 92.362 14.408 92.858 13.976C93.37 13.528 93.97 13.192 94.658 12.968C95.362 12.744 96.122 12.632 96.938 12.632C98.042 12.632 99.026 12.848 99.89 13.28C100.754 13.696 101.442 14.296 101.954 15.08C102.466 15.848 102.722 16.752 102.722 17.792C102.722 18.896 102.45 19.856 101.906 20.672C101.362 21.488 100.626 22.12 99.698 22.568C98.77 23.016 97.73 23.24 96.578 23.24ZM96.41 20.792C97.05 20.792 97.618 20.68 98.114 20.456C98.61 20.216 98.994 19.88 99.266 19.448C99.554 19.016 99.698 18.512 99.698 17.936C99.698 17.056 99.394 16.36 98.786 15.848C98.178 15.336 97.362 15.08 96.338 15.08C95.666 15.08 95.074 15.208 94.562 15.464C94.066 15.704 93.666 16.04 93.362 16.472C93.074 16.904 92.93 17.4 92.93 17.96C92.93 18.472 93.066 18.944 93.338 19.376C93.61 19.808 94.002 20.152 94.514 20.408C95.042 20.664 95.674 20.792 96.41 20.792ZM116.554 23.24C115.37 23.24 114.21 23.072 113.074 22.736C111.954 22.384 111.01 21.904 110.242 21.296L111.562 18.872C112.17 19.368 112.906 19.768 113.77 20.072C114.65 20.376 115.562 20.528 116.506 20.528C117.61 20.528 118.474 20.296 119.098 19.832C119.738 19.368 120.058 18.744 120.058 17.96C120.058 17.432 119.922 16.968 119.65 16.568C119.394 16.168 118.93 15.864 118.258 15.656C117.602 15.448 116.698 15.344 115.546 15.344H111.49L112.354 6.2H122.218V8.816H113.506L115.138 7.328L114.49 14.168L112.858 12.704H116.242C117.906 12.704 119.242 12.928 120.25 13.376C121.274 13.808 122.018 14.416 122.482 15.2C122.962 15.968 123.202 16.848 123.202 17.84C123.202 18.816 122.962 19.712 122.482 20.528C122.002 21.344 121.266 22 120.274 22.496C119.298 22.992 118.058 23.24 116.554 23.24ZM130.452 23.24C129.268 23.24 128.108 23.072 126.972 22.736C125.852 22.384 124.908 21.904 124.14 21.296L125.46 18.872C126.068 19.368 126.804 19.768 127.668 20.072C128.548 20.376 129.46 20.528 130.404 20.528C131.508 20.528 132.372 20.296 132.996 19.832C133.636 19.368 133.956 18.744 133.956 17.96C133.956 17.432 133.82 16.968 133.548 16.568C133.292 16.168 132.828 15.864 132.156 15.656C131.5 15.448 130.596 15.344 129.444 15.344H125.388L126.252 6.2H136.116V8.816H127.404L129.036 7.328L128.388 14.168L126.756 12.704H130.14C131.804 12.704 133.14 12.928 134.148 13.376C135.172 13.808 135.916 14.416 136.38 15.2C136.86 15.968 137.1 16.848 137.1 17.84C137.1 18.816 136.86 19.712 136.38 20.528C135.9 21.344 135.164 22 134.172 22.496C133.196 22.992 131.956 23.24 130.452 23.24ZM144.351 23.24C143.167 23.24 142.007 23.072 140.871 22.736C139.751 22.384 138.807 21.904 138.039 21.296L139.359 18.872C139.967 19.368 140.703 19.768 141.567 20.072C142.447 20.376 143.359 20.528 144.303 20.528C145.407 20.528 146.271 20.296 146.895 19.832C147.535 19.368 147.855 18.744 147.855 17.96C147.855 17.432 147.719 16.968 147.447 16.568C147.191 16.168 146.727 15.864 146.055 15.656C145.399 15.448 144.495 15.344 143.343 15.344H139.287L140.151 6.2H150.015V8.816H141.303L142.935 7.328L142.287 14.168L140.655 12.704H144.039C145.703 12.704 147.039 12.928 148.047 13.376C149.071 13.808 149.815 14.416 150.279 15.2C150.759 15.968 150.999 16.848 150.999 17.84C150.999 18.816 150.759 19.712 150.279 20.528C149.799 21.344 149.063 22 148.071 22.496C147.095 22.992 145.855 23.24 144.351 23.24ZM162.239 23L169.175 7.448L169.991 8.84H160.463L161.951 7.328V11.696H159.047V6.2H172.103V8.288L165.575 23H162.239ZM179.125 23.24C177.941 23.24 176.781 23.072 175.645 22.736C174.525 22.384 173.581 21.904 172.813 21.296L174.157 18.872C174.765 19.368 175.501 19.768 176.365 20.072C177.229 20.376 178.133 20.528 179.077 20.528C180.197 20.528 181.069 20.304 181.693 19.856C182.317 19.392 182.629 18.768 182.629 17.984C182.629 17.216 182.341 16.608 181.765 16.16C181.189 15.712 180.261 15.488 178.981 15.488H177.445V13.352L182.245 7.64L182.653 8.816H173.629V6.2H185.077V8.288L180.277 14L178.645 13.04H179.581C181.645 13.04 183.189 13.504 184.213 14.432C185.253 15.344 185.773 16.52 185.773 17.96C185.773 18.904 185.533 19.776 185.053 20.576C184.573 21.376 183.837 22.024 182.845 22.52C181.869 23 180.629 23.24 179.125 23.24ZM194.822 23.24C193.494 23.24 192.294 22.904 191.222 22.232C190.166 21.56 189.334 20.584 188.726 19.304C188.118 18.008 187.814 16.44 187.814 14.6C187.814 12.76 188.118 11.2 188.726 9.92C189.334 8.624 190.166 7.64 191.222 6.968C192.294 6.296 193.494 5.96 194.822 5.96C196.166 5.96 197.366 6.296 198.422 6.968C199.478 7.64 200.31 8.624 200.918 9.92C201.542 11.2 201.854 12.76 201.854 14.6C201.854 16.44 201.542 18.008 200.918 19.304C200.31 20.584 199.478 21.56 198.422 22.232C197.366 22.904 196.166 23.24 194.822 23.24ZM194.822 20.528C195.606 20.528 196.286 20.32 196.862 19.904C197.438 19.472 197.886 18.816 198.206 17.936C198.542 17.056 198.71 15.944 198.71 14.6C198.71 13.24 198.542 12.128 198.206 11.264C197.886 10.384 197.438 9.736 196.862 9.32C196.286 8.888 195.606 8.672 194.822 8.672C194.07 8.672 193.398 8.888 192.806 9.32C192.23 9.736 191.774 10.384 191.438 11.264C191.118 12.128 190.958 13.24 190.958 14.6C190.958 15.944 191.118 17.056 191.438 17.936C191.774 18.816 192.23 19.472 192.806 19.904C193.398 20.32 194.07 20.528 194.822 20.528ZM209.626 5.96C211.162 5.96 212.466 6.288 213.538 6.944C214.626 7.584 215.458 8.52 216.034 9.752C216.61 10.984 216.898 12.504 216.898 14.312C216.898 16.232 216.546 17.856 215.842 19.184C215.154 20.512 214.194 21.52 212.962 22.208C211.73 22.896 210.298 23.24 208.666 23.24C207.818 23.24 207.01 23.152 206.242 22.976C205.474 22.8 204.81 22.528 204.25 22.16L205.402 19.808C205.866 20.112 206.37 20.328 206.914 20.456C207.458 20.568 208.018 20.624 208.594 20.624C210.178 20.624 211.434 20.136 212.362 19.16C213.29 18.184 213.754 16.744 213.754 14.84C213.754 14.536 213.746 14.184 213.73 13.784C213.714 13.368 213.658 12.952 213.562 12.536L214.522 13.592C214.25 14.248 213.858 14.8 213.346 15.248C212.834 15.68 212.234 16.008 211.546 16.232C210.858 16.456 210.098 16.568 209.266 16.568C208.178 16.568 207.194 16.36 206.314 15.944C205.45 15.512 204.762 14.912 204.25 14.144C203.738 13.36 203.482 12.448 203.482 11.408C203.482 10.288 203.754 9.328 204.298 8.528C204.842 7.712 205.578 7.08 206.506 6.632C207.45 6.184 208.49 5.96 209.626 5.96ZM209.794 8.408C209.154 8.408 208.586 8.528 208.09 8.768C207.594 8.992 207.202 9.32 206.914 9.752C206.642 10.168 206.506 10.672 206.506 11.264C206.506 12.144 206.81 12.84 207.418 13.352C208.026 13.864 208.842 14.12 209.866 14.12C210.538 14.12 211.13 14 211.642 13.76C212.154 13.504 212.554 13.16 212.842 12.728C213.13 12.28 213.274 11.784 213.274 11.24C213.274 10.712 213.138 10.24 212.866 9.824C212.594 9.392 212.202 9.048 211.69 8.792C211.178 8.536 210.546 8.408 209.794 8.408ZM221.674 23V7.4L223.042 8.816H218.122V6.2H224.794V23H221.674ZM235.134 23.24C233.806 23.24 232.606 22.904 231.534 22.232C230.478 21.56 229.646 20.584 229.038 19.304C228.43 18.008 228.126 16.44 228.126 14.6C228.126 12.76 228.43 11.2 229.038 9.92C229.646 8.624 230.478 7.64 231.534 6.968C232.606 6.296 233.806 5.96 235.134 5.96C236.478 5.96 237.678 6.296 238.734 6.968C239.79 7.64 240.622 8.624 241.23 9.92C241.854 11.2 242.166 12.76 242.166 14.6C242.166 16.44 241.854 18.008 241.23 19.304C240.622 20.584 239.79 21.56 238.734 22.232C237.678 22.904 236.478 23.24 235.134 23.24ZM235.134 20.528C235.918 20.528 236.598 20.32 237.174 19.904C237.75 19.472 238.198 18.816 238.518 17.936C238.854 17.056 239.022 15.944 239.022 14.6C239.022 13.24 238.854 12.128 238.518 11.264C238.198 10.384 237.75 9.736 237.174 9.32C236.598 8.888 235.918 8.672 235.134 8.672C234.382 8.672 233.71 8.888 233.118 9.32C232.542 9.736 232.086 10.384 231.75 11.264C231.43 12.128 231.27 13.24 231.27 14.6C231.27 15.944 231.43 17.056 231.75 17.936C232.086 18.816 232.542 19.472 233.118 19.904C233.71 20.32 234.382 20.528 235.134 20.528Z" fill="white"/>
</svg>
