<svg width="27" height="27" viewBox="0 0 27 27" fill="none" xmlns="http://www.w3.org/2000/svg">
<path fill-rule="evenodd" clip-rule="evenodd" d="M8.01891 0.288734C9.43628 0.223484 9.8882 0.208984 13.4987 0.208984C17.1092 0.208984 17.5611 0.224693 18.9773 0.288734C20.3934 0.352776 21.3601 0.578734 22.2059 0.906193C23.0917 1.2409 23.8952 1.76411 24.5598 2.44078C25.2364 3.10415 25.7584 3.90648 26.0919 4.7934C26.4206 5.63923 26.6454 6.6059 26.7106 8.01965C26.7759 9.43944 26.7904 9.89136 26.7904 13.5007C26.7904 17.1112 26.7747 17.5631 26.7106 18.9804C26.6466 20.3942 26.4206 21.3609 26.0919 22.2067C25.7584 23.0937 25.2356 23.8974 24.5598 24.5617C23.8952 25.2384 23.0917 25.7604 22.2059 26.0939C21.3601 26.4226 20.3934 26.6473 18.9797 26.7126C17.5611 26.7778 17.1092 26.7923 13.4987 26.7923C9.8882 26.7923 9.43628 26.7766 8.01891 26.7126C6.60516 26.6485 5.63849 26.4226 4.79266 26.0939C3.90564 25.7604 3.10198 25.2375 2.43761 24.5617C1.76141 23.898 1.23812 23.0947 0.90424 22.2079C0.576781 21.3621 0.352031 20.3954 0.286781 18.9816C0.221531 17.5619 0.207031 17.1099 0.207031 13.5007C0.207031 9.89015 0.22274 9.43823 0.286781 8.02207C0.350823 6.6059 0.576781 5.63923 0.90424 4.7934C1.23861 3.90658 1.7623 3.10332 2.43882 2.43957C3.10225 1.76351 3.9051 1.24023 4.79145 0.906193C5.63728 0.578734 6.60395 0.353984 8.0177 0.288734H8.01891ZM18.8697 2.68123C17.4681 2.61719 17.0476 2.6039 13.4987 2.6039C9.94982 2.6039 9.52932 2.61719 8.12766 2.68123C6.83111 2.74044 6.12786 2.95673 5.65903 3.13919C5.03916 3.38086 4.5957 3.66723 4.13049 4.13244C3.6895 4.56146 3.35012 5.08374 3.13724 5.66098C2.95478 6.12982 2.73849 6.83307 2.67928 8.12961C2.61524 9.53127 2.60195 9.95178 2.60195 13.5007C2.60195 17.0495 2.61524 17.47 2.67928 18.8717C2.73849 20.1682 2.95478 20.8715 3.13724 21.3403C3.34991 21.9167 3.68945 22.4399 4.13049 22.8689C4.55945 23.3099 5.08266 23.6494 5.65903 23.8621C6.12786 24.0446 6.83111 24.2609 8.12766 24.3201C9.52932 24.3841 9.94861 24.3974 13.4987 24.3974C17.0488 24.3974 17.4681 24.3841 18.8697 24.3201C20.1663 24.2609 20.8695 24.0446 21.3384 23.8621C21.9582 23.6204 22.4017 23.3341 22.8669 22.8689C23.3079 22.4399 23.6475 21.9167 23.8602 21.3403C24.0426 20.8715 24.2589 20.1682 24.3181 18.8717C24.3822 17.47 24.3954 17.0495 24.3954 13.5007C24.3954 9.95178 24.3822 9.53127 24.3181 8.12961C24.2589 6.83307 24.0426 6.12982 23.8602 5.66098C23.6185 5.04111 23.3321 4.59765 22.8669 4.13244C22.4379 3.69149 21.9156 3.35211 21.3384 3.13919C20.8695 2.95673 20.1663 2.74044 18.8697 2.68123ZM11.801 17.5981C12.7491 17.9928 13.8049 18.0461 14.7879 17.7488C15.7709 17.4516 16.6203 16.8223 17.1909 15.9684C17.7615 15.1145 18.0179 14.089 17.9164 13.067C17.8149 12.045 17.3617 11.09 16.6343 10.365C16.1706 9.9016 15.6099 9.54676 14.9926 9.32604C14.3753 9.10532 13.7167 9.02421 13.0643 9.08856C12.4119 9.15291 11.7818 9.36111 11.2195 9.69818C10.6572 10.0353 10.1767 10.4928 9.81244 11.0379C9.4482 11.583 9.20934 12.202 9.11307 12.8505C9.0168 13.499 9.06551 14.1608 9.25568 14.7881C9.44586 15.4155 9.77278 15.993 10.2129 16.4789C10.653 16.9647 11.1954 17.347 11.801 17.5981ZM8.66778 8.66973C9.30219 8.03533 10.0553 7.53209 10.8842 7.18875C11.7131 6.84542 12.6015 6.6687 13.4987 6.6687C14.3959 6.6687 15.2843 6.84542 16.1132 7.18875C16.9421 7.53209 17.6952 8.03533 18.3296 8.66973C18.964 9.30414 19.4673 10.0573 19.8106 10.8862C20.1539 11.7151 20.3306 12.6035 20.3306 13.5007C20.3306 14.3978 20.1539 15.2862 19.8106 16.1151C19.4673 16.944 18.964 17.6972 18.3296 18.3316C17.0484 19.6128 15.3106 20.3326 13.4987 20.3326C11.6868 20.3326 9.94902 19.6128 8.66778 18.3316C7.38654 17.0503 6.66675 15.3126 6.66675 13.5007C6.66675 11.6887 7.38654 9.95097 8.66778 8.66973ZM21.8459 7.68615C22.0031 7.53785 22.1289 7.35952 22.216 7.1617C22.303 6.96389 22.3495 6.75062 22.3527 6.53452C22.3558 6.31843 22.3156 6.1039 22.2343 5.90363C22.1531 5.70336 22.0325 5.52143 21.8796 5.36861C21.7268 5.2158 21.5449 5.09519 21.3446 5.01394C21.1444 4.93269 20.9298 4.89245 20.7137 4.89561C20.4976 4.89876 20.2844 4.94523 20.0866 5.03228C19.8888 5.11934 19.7104 5.24519 19.5621 5.4024C19.2737 5.70814 19.1158 6.11426 19.1219 6.53452C19.128 6.95479 19.2977 7.35613 19.5949 7.65334C19.8921 7.95054 20.2935 8.12022 20.7137 8.12635C21.134 8.13247 21.5401 7.97457 21.8459 7.68615Z" fill="white"/>
</svg>
