<svg width="24" height="21" viewBox="0 0 24 21" fill="none" xmlns="http://www.w3.org/2000/svg">
<path fill-rule="evenodd" clip-rule="evenodd" d="M13.5126 0.97417C12.8301 -0.171078 11.1715 -0.171078 10.4889 0.974172L0.258666 18.139C-0.440537 19.3121 0.404786 20.8001 1.77051 20.8001H22.231C23.5968 20.8001 24.4421 19.3121 23.7429 18.139L13.5126 0.97417ZM11.8633 1.79331C11.9254 1.6892 12.0762 1.6892 12.1382 1.79331L22.3685 18.9582C22.4321 19.0648 22.3552 19.2001 22.231 19.2001H1.77051C1.64637 19.2001 1.56951 19.0648 1.63307 18.9582L11.8633 1.79331ZM10.9238 7.17792C10.9003 6.56692 11.3893 6.05875 12.0008 6.05875C12.6123 6.05875 13.1012 6.56692 13.0777 7.17794L12.8315 13.5794C12.8143 14.0257 12.4475 14.3788 12.0008 14.3788C11.5541 14.3788 11.1872 14.0257 11.17 13.5794L10.9238 7.17792ZM13.2006 16.7617C13.2006 17.4245 12.6633 17.9617 12.0006 17.9617C11.3379 17.9617 10.8006 17.4245 10.8006 16.7617C10.8006 16.099 11.3379 15.5617 12.0006 15.5617C12.6633 15.5617 13.2006 16.099 13.2006 16.7617Z" fill="#FF6060"/>
</svg>
